<svg xmlns="http://www.w3.org/2000/svg" viewBox="0 0 200 200">
  <path d="M125.3,23.8C117.1,16,50,49.4,50,129.6c0,33,20,58.9,50,80.3c30-21.4,50-47,50-80.3C150,49.4,82.9,16,74.7,23.8C68.4,16.7,61,13,53,13c-12.2,0-23,5.7-30,14.6C0,39.9,0,80,0,129.6C0,180.3,36.7,196,85,196s85-15.7,85-66.4C170,80,170,39.9,123,19.6C146,29.3,160,56.6,160,89.6C160,130.1,123,165,85,165S10,130.1,10,89.6C10,56.6,24,29.3,47,19.6C38,26.7,30,37,30,49.6c0,26.3,36.4,49.6,85,49.6s85-23.3,85-49.6C230,37,222,26.7,213,19.6C190,29.3,176,56.6,176,89.6C176,130.1,139,165,95,165C51,165,16,130.1,16,89.6C16,56.6,30,29.3,53,19.6C50,16.7,46,15,42,15C33.6,15,26,20.1,26,30.3c0,10.1,7.6,15.3,16,15.3c5.3,0,10.1-1.6,14.4-4.9C72.3,18.3,102,20.3,125.3,23.8z"/>
</svg>